<?xml version="1.0" encoding="utf-8"?>
<!-- Generator: Adobe Illustrator 26.1.0, SVG Export Plug-In . SVG Version: 6.00 Build 0)  -->
<svg version="1.1" id="Layer_1" xmlns="http://www.w3.org/2000/svg" xmlns:xlink="http://www.w3.org/1999/xlink" x="0px" y="0px"
	 viewBox="0 0 601 234" style="enable-background:new 0 0 601 234;" xml:space="preserve">
<style type="text/css">
	.st0{fill:#FFFFFF;}
</style>
<path class="st0" d="M285.3,79.3c-0.2-0.6-0.4-1.4-0.5-1.7c-5.4-11.3-16.8-15-27.3-20.9c3.8-12.8,36-35.9,48.5-30.1
	c-4.6-7.2-6.9-7.5-12.5-5.8C278,26,264.3,35.5,254.2,48.3c-4.3,6.1-4.6,8.9,1.8,12.3c4,2,5.8,2.9,11.5,6s10.5,7.1,10.8,14.9
	c-37.7,15.1-43.9,36.3-44.4,42.2c4.3,4.6,9.3,4.1,13.5,2.2c34.3-13.3,38.3-40.6,38.3-40.6s43.5-15.4,49.6-17.6
	c12.3-4.7,15.8-4.1,24.9-4.9c3.1-0.7,6.2-0.9,7.7-5.3c0.7-4.1-14.6-1.4-27.1,2.5C337.1,61.1,304.5,72.8,285.3,79.3z M243.1,120.1
	c2.4-14.9,24.8-28.7,34.5-31.9C274.8,105.1,250.8,119.7,243.1,120.1z"/>
<path class="st0" d="M299,36.1c5-2,10.2-4.1,15.5-6.1c6-2.2,12-4.4,18.1-6.2c1.6-0.5,3.7,0.7,5.7,3l-34.5,15.8
	c11.8,10.6,10.9,16.2-3,23.5c-9.3,4.8-12.4,4.8-20-0.6c9.9-2.6,20.5-3.2,26.3-16.2c-5,1.1-7.8,1.8-10.7,2.3c-4.5,0.8-5.2,0-4.8-5.8
	C291.6,45.9,296.5,39.4,299,36.1z"/>
<path class="st0" d="M335,42.3c0,0-9.2,6.9-13.4,10.6c-2.2,2-3.5-0.4-4.4-1.5l-1.3-1.7c0,0,17.4-13.7,23.9-18.3
	c2.4-1.7,5.3-3.8,7.6-0.8c1.2,1.6,1.2,4.8,0.5,6.9c-1.2,3.8-32.5,68-39.2,81.9c-0.5,0.9-1.6,1.4-2.6,1.4c-4.2-0.5-3.7-2.4-2-6.2
	c3.7-8.1,31.4-67,32.4-70.7S335,42.3,335,42.3z"/>
<path class="st0" d="M40.3,206.6c0,1-1,1.8-2.9,1.8c-1.2,0.1-2.4-0.4-3.3-1.2l0.3-0.3c0.8,0.8,1.9,1.2,3,1.1c1.6,0,2.5-0.6,2.5-1.4
	s-1-1-2.6-1.2c-1.5-0.1-2.9-0.5-2.9-1.5s1.4-1.6,2.9-1.6c1-0.1,2.1,0.3,2.8,1l-0.3,0.3c-0.7-0.6-1.6-0.9-2.5-0.9
	c-1.1,0-2.4,0.4-2.4,1.2s1.2,1,2.6,1.1C39.1,205.2,40.3,205.6,40.3,206.6z"/>
<path class="st0" d="M48.7,202.9h-2.8v5.4h-0.4v-5.4h-2.8v-0.4h6.1V202.9z"/>
<path class="st0" d="M57.4,208.2l-2-2.3h-3.1v2.3h-0.4v-5.8h3.8c1.3,0,2.1,0.6,2.1,1.7s-0.7,1.6-1.9,1.7l2,2.3H57.4z M55.6,205.5
	c1.1,0,1.7-0.5,1.7-1.3s-0.7-1.3-1.7-1.3h-3.3v2.7L55.6,205.5z"/>
<path class="st0" d="M66,206.5h-4.1l-0.9,1.7h-0.5l3.2-5.8h0.5l3.2,5.8H67L66,206.5z M65.8,206.2l-1.8-3.3l-1.8,3.3H65.8z"/>
<path class="st0" d="M74.8,202.9H72v5.4h-0.4v-5.4h-2.8v-0.4h6.1L74.8,202.9z"/>
<path class="st0" d="M83.3,207.9v0.4h-5.4v-5.8h5.4v0.4h-4.9v2.2h4.2v0.4h-4.2v2.3H83.3z"/>
<path class="st0" d="M92.8,206.7c-0.6,1.1-1.9,1.8-3.2,1.7c-2.2,0-3.5-1.2-3.5-3s1.3-3,3.5-3c1.1-0.1,2.2,0.4,2.9,1.2l-0.4,0.2
	c-0.6-0.7-1.6-1.1-2.5-1.1c-1.8,0-3,0.9-3,2.6s1.2,2.6,3.1,2.6c1.1,0.1,2.2-0.4,2.8-1.4v-0.9h-2.8v-0.4h3.3L92.8,206.7z"/>
<path class="st0" d="M95.8,202.5l2.6,3.3l2.6-3.3h0.5l-3,3.7v2h-0.4v-2l-3-3.7H95.8z"/>
<path class="st0" d="M118.1,202.5h0.4v6.7h-0.4V202.5z"/>
<path class="st0" d="M141.9,206.6c0,1-1,1.8-2.9,1.8c-1.2,0.1-2.4-0.4-3.3-1.2l0.3-0.3c0.8,0.8,1.9,1.2,3,1.1c1.6,0,2.5-0.6,2.5-1.4
	s-1-1-2.6-1.2c-1.5-0.1-2.9-0.5-2.9-1.5s1.4-1.6,2.9-1.6c1-0.1,2.1,0.3,2.8,1l-0.3,0.3c-0.7-0.6-1.6-0.9-2.5-0.9
	c-1.1,0-2.4,0.4-2.4,1.2s1.2,1,2.6,1.1C140.7,205.2,141.9,205.6,141.9,206.6z"/>
<path class="st0" d="M150.7,207.9v0.4h-5.4v-5.8h5.3v0.4h-4.9v2.2h4.2v0.4h-4.2v2.3H150.7z"/>
<path class="st0" d="M159,207.9l0.9,1l-0.3,0.2l-1-1.1c-0.6,0.2-1.1,0.3-1.7,0.3c-2.2,0-3.4-1.2-3.4-3s1.3-3,3.4-3s3.4,1.2,3.4,3
	C160.4,206.4,159.9,207.4,159,207.9z M158.4,207.8l-1-1.1l0.3-0.2l1.1,1.2c0.8-0.5,1.2-1.3,1.2-2.2c0-1.7-1.2-2.6-3-2.6s-3,1-3,2.6
	s1.2,2.6,3,2.6C157.4,208,157.9,207.9,158.4,207.8L158.4,207.8z"/>
<path class="st0" d="M169.7,202.5v3c-0.3,1.6-1.8,2.7-3.4,2.5c-1.3-0.2-2.3-1.2-2.5-2.5v-3h0.4v3c0,1.4,1.1,2.5,2.5,2.5
	c1.4,0,2.5-1.1,2.5-2.5v-3H169.7z"/>
<path class="st0" d="M179,207.9v0.4h-5.4v-5.8h5.4v0.4H174v2.2h4.2v0.4H174v2.3H179z"/>
<path class="st0" d="M188.4,202.5v5.8H188l-5.2-5.2v5.2h-0.4v-5.7h0.5l5,5.1v-5.1H188.4z"/>
<path class="st0" d="M197.8,206.9l0.4,0.2c-0.7,0.9-1.8,1.4-2.9,1.3c-2.1,0-3.4-1.2-3.4-3s1.3-3,3.4-3c1.1-0.1,2.2,0.4,2.9,1.3
	l-0.4,0.2c-0.6-0.8-1.5-1.2-2.5-1.1c-1.8,0-3,0.9-3,2.6s1.2,2.6,3,2.6C196.3,208.1,197.2,207.7,197.8,206.9z"/>
<path class="st0" d="M201.5,208.2v-5.8h0.5v5.8H201.5z"/>
<path class="st0" d="M211.9,202.5v5.8h-0.4l-5.1-5.2v5.2h-0.4v-5.7h0.5l5,5.1v-5.1H211.9z"/>
<path class="st0" d="M222,206.7c-0.6,1.1-1.9,1.8-3.2,1.7c-2.2,0-3.5-1.2-3.5-3s1.3-3,3.5-3c1.1-0.1,2.2,0.4,2.9,1.2l-0.4,0.2
	c-0.6-0.7-1.6-1.1-2.5-1.1c-1.8,0-3,0.9-3,2.6s1.2,2.6,3.1,2.6c1.1,0.1,2.2-0.4,2.8-1.4v-0.9h-2.8v-0.4h3.2V206.7z"/>
<path class="st0" d="M239.2,202.5h0.4v6.7h-0.4V202.5z"/>
<path class="st0" d="M263,206.6c0,1-1,1.8-2.9,1.8c-1.2,0.1-2.4-0.4-3.3-1.2l0.3-0.3c0.8,0.8,1.9,1.2,3,1.1c1.6,0,2.5-0.6,2.5-1.4
	s-1-1-2.6-1.2c-1.5-0.1-2.9-0.5-2.9-1.5s1.4-1.6,2.9-1.6c1-0.1,2.1,0.3,2.8,1l-0.3,0.3c-0.7-0.6-1.6-0.9-2.5-0.9
	c-1.1,0-2.4,0.4-2.4,1.2s1.2,1,2.6,1.1C261.8,205.2,263,205.6,263,206.6z"/>
<path class="st0" d="M271.4,202.9h-2.8v5.4h-0.4v-5.4h-2.8v-0.4h6.1V202.9z"/>
<path class="st0" d="M278.2,206.5h-4.1l-0.9,1.7h-0.5l3.2-5.8h0.5l3.2,5.8h-0.5L278.2,206.5z M278,206.2l-1.8-3.3l-1.8,3.3H278z"/>
<path class="st0" d="M288.2,208.2l-3-3.2l-2.1,1.6v1.7h-0.4v-5.8h0.4v3.6l4.9-3.6h0.6l-3,2.2l3.2,3.5H288.2z"/>
<path class="st0" d="M297.3,207.9v0.4h-5.4v-5.8h5.4v0.4h-4.9v2.2h4.2v0.4h-4.2v2.3H297.3z"/>
<path class="st0" d="M306.7,202.5v5.8h-0.4v-2.7h-5.1v2.7h-0.4v-5.8h0.4v2.6h5.1v-2.6H306.7z"/>
<path class="st0" d="M310.2,205.4c0-1.9,1.3-3,3.5-3s3.4,1.2,3.4,3s-1.3,3-3.4,3S310.2,207.2,310.2,205.4z M316.6,205.4
	c0-1.7-1.2-2.6-3-2.6s-3,1-3,2.6s1.2,2.6,3,2.6S316.6,207.1,316.6,205.4z"/>
<path class="st0" d="M325.6,207.9v0.4h-5v-5.8h0.4v5.4H325.6z"/>
<path class="st0" d="M334.8,205.4c0,1.8-1.3,2.9-3.4,2.9h-2.7v-5.8h2.7C333.5,202.5,334.8,203.6,334.8,205.4z M334.4,205.4
	c0-1.6-1.3-2.5-3-2.5h-2.2v5h2.2C333.1,207.9,334.4,207,334.4,205.4z"/>
<path class="st0" d="M343.8,207.9v0.4h-5.4v-5.8h5.4v0.4h-4.9v2.2h4.2v0.4h-4.2v2.3H343.8z"/>
<path class="st0" d="M352.7,208.2l-2-2.3h-3.1v2.3h-0.4v-5.8h3.8c1.3,0,2.1,0.6,2.1,1.7s-0.7,1.6-1.9,1.7l2,2.3H352.7z M351,205.5
	c1.1,0,1.7-0.5,1.7-1.3s-0.7-1.3-1.7-1.3h-3.3v2.7L351,205.5z"/>
<path class="st0" d="M366.8,208.2l-2-2.3h-3.1v2.3h-0.4v-5.8h3.8c1.3,0,2.1,0.6,2.1,1.7s-0.8,1.6-1.9,1.7l2,2.3H366.8z M365,205.5
	c1.1,0,1.7-0.5,1.7-1.3s-0.7-1.3-1.7-1.3h-3.3v2.7L365,205.5z"/>
<path class="st0" d="M376.2,207.9v0.4h-5.4v-5.8h5.3v0.4h-4.9v2.2h4.2v0.4h-4.2v2.3H376.2z"/>
<path class="st0" d="M384.6,207.9v0.4h-5v-5.8h0.4v5.4H384.6z"/>
<path class="st0" d="M392.4,206.5h-4.1l-0.9,1.7h-0.5l3.2-5.8h0.5l3.2,5.8h-0.5L392.4,206.5z M392.2,206.2l-1.8-3.3l-1.8,3.3H392.2z
	"/>
<path class="st0" d="M401.2,202.9h-2.8v5.4H398v-5.4h-2.8v-0.4h6L401.2,202.9z"/>
<path class="st0" d="M404.4,208.2v-5.8h0.4v5.8H404.4z"/>
<path class="st0" d="M408.3,205.4c0-1.9,1.3-3,3.5-3s3.4,1.2,3.4,3s-1.3,3-3.4,3S408.3,207.2,408.3,205.4z M414.7,205.4
	c0-1.7-1.2-2.6-3-2.6s-3,1-3,2.6s1.2,2.6,3,2.6S414.7,207.1,414.7,205.4L414.7,205.4z"/>
<path class="st0" d="M424.6,202.5v5.8h-0.4l-5.2-5.2v5.2h-0.4v-5.7h0.5l5,5.1v-5.1H424.6z"/>
<path class="st0" d="M434.2,206.6c0,1-1,1.8-2.9,1.8c-1.2,0.1-2.4-0.4-3.3-1.2l0.3-0.3c0.8,0.8,1.9,1.2,3,1.1c1.6,0,2.5-0.6,2.5-1.4
	s-1-1-2.6-1.2c-1.5-0.1-2.9-0.5-2.9-1.5s1.4-1.6,2.9-1.6c1-0.1,2.1,0.3,2.8,1l-0.3,0.3c-0.7-0.6-1.6-0.9-2.5-0.9
	c-1.1,0-2.4,0.4-2.4,1.2s1.2,1,2.7,1.1C433,205.2,434.2,205.6,434.2,206.6z"/>
<path class="st0" d="M451.3,202.5h0.4v6.7h-0.4V202.5z"/>
<path class="st0" d="M475,206.6c0,1-1,1.8-2.9,1.8c-1.2,0.1-2.4-0.4-3.3-1.2l0.3-0.3c0.8,0.8,1.9,1.2,3,1.1c1.6,0,2.5-0.6,2.5-1.4
	s-1-1-2.6-1.2s-3-0.5-3-1.5s1.4-1.6,2.9-1.6c1-0.1,2.1,0.3,2.8,1l-0.3,0.3c-0.7-0.6-1.6-0.9-2.5-0.9c-1.1,0-2.4,0.4-2.4,1.2
	s1.2,1,2.6,1.1C473.8,205.2,475,205.6,475,206.6z"/>
<path class="st0" d="M483.5,202.9h-2.8v5.4h-0.4v-5.4h-2.8v-0.4h6.1V202.9z"/>
<path class="st0" d="M485.7,205.4c0-1.9,1.3-3,3.5-3s3.4,1.2,3.4,3s-1.3,3-3.4,3S485.7,207.2,485.7,205.4z M492.2,205.4
	c0-1.7-1.2-2.6-3-2.6s-3,1-3,2.6s1.2,2.6,3,2.6S492.2,207.1,492.2,205.4L492.2,205.4z"/>
<path class="st0" d="M501.7,208.2l-2-2.3h-3.1v2.3h-0.4v-5.8h3.8c1.3,0,2.2,0.6,2.2,1.7s-0.7,1.6-1.9,1.7l2,2.3H501.7z M499.9,205.5
	c1.1,0,1.7-0.5,1.7-1.3s-0.7-1.3-1.7-1.3h-3.3v2.7L499.9,205.5z"/>
<path class="st0" d="M505.1,202.5l2.7,3.3l2.6-3.3h0.5l-2.9,3.7v2h-0.4v-2l-2.9-3.7H505.1z"/>
<path class="st0" d="M519.3,202.9h-2.8v5.4H516v-5.4h-2.8v-0.4h6.1V202.9z"/>
<path class="st0" d="M527.8,207.9v0.4h-5.4v-5.8h5.3v0.4h-4.9v2.2h4.2v0.4h-4.2v2.3H527.8z"/>
<path class="st0" d="M536.2,207.9v0.4h-5v-5.8h0.4v5.4H536.2z"/>
<path class="st0" d="M544.4,207.9v0.4h-5v-5.8h0.4v5.4H544.4z"/>
<path class="st0" d="M547.5,208.2v-5.8h0.5v5.8H547.5z"/>
<path class="st0" d="M557.8,202.5v5.8h-0.4l-5.1-5.2v5.2h-0.4v-5.7h0.5l5,5.1v-5.1H557.8z"/>
<path class="st0" d="M568,206.7c-0.6,1.1-1.9,1.8-3.2,1.7c-2.2,0-3.5-1.2-3.5-3s1.3-3,3.5-3c1.1-0.1,2.2,0.4,2.9,1.2l-0.4,0.2
	c-0.6-0.7-1.6-1.1-2.5-1.1c-1.8,0-3,0.9-3,2.6s1.2,2.6,3,2.6c1.1,0.1,2.2-0.4,2.8-1.4v-0.9h-2.8v-0.4h3.3V206.7z"/>
<path class="st0" d="M52.2,162.6c0,3.1-3,5.3-8.7,5.3c-3.5,0.1-7-1-9.8-3.2l2.1-2.5c2.1,1.9,4.9,2.8,7.8,2.6c3.2,0,4.9-0.6,4.9-1.9
	s-1.6-1.7-5.3-2c-4.6-0.4-8.8-1.4-8.8-4.8s3.6-5.2,8.5-5.2c3-0.1,6,0.7,8.6,2.5l-2,2.5c-1.9-1.4-4.2-2-6.5-1.9
	c-2.2,0-4.8,0.4-4.8,1.8s2.3,1.5,5.5,1.8C48.6,158,52.2,159.1,52.2,162.6z"/>
<path class="st0" d="M87.8,167.5v-16h3.7v16H87.8z"/>
<path class="st0" d="M146.9,164.2c-1.6,2.2-4.8,3.7-9.1,3.7c-6.4,0-10.3-3.1-10.3-8.5s3.9-8.5,10.3-8.5c3.1-0.1,6,1,8.3,3l-2.9,2.1
	c-1.5-1.4-3.4-2.1-5.4-2c-4.2,0-6.6,1.8-6.6,5.4s2.5,5.4,6.8,5.4c2.4,0,4.4-0.5,5.5-1.9v-1.5h-6v-3h9.5L146.9,164.2z"/>
<path class="st0" d="M201.1,151.5v16h-3.2l-11.5-11.6v11.6h-3.5v-16h3.9l10.8,11v-11L201.1,151.5z"/>
<path class="st0" d="M251.2,164.1h-9.7l-1.7,3.4H236l8.5-16h4l8.5,16h-4L251.2,164.1z M249.7,161.1l-3.3-6.5l-3.3,6.5H249.7z"/>
<path class="st0" d="M305.1,154.6h-7v12.8h-3.7v-12.8h-7v-3.2h17.6L305.1,154.6z"/>
<path class="st0" d="M358,151.5v8.5c0,4.8-3.2,8-9,8s-9-3.2-9-8v-8.5h3.7v8.2c0,3.2,1.9,5.1,5.3,5.1s5.3-1.9,5.3-5.1v-8.2H358z"/>
<path class="st0" d="M408.7,167.5l-4.6-5.5h-5.8v5.4h-3.6v-16h11c3.9,0,6.9,1.8,6.9,5.3c0,2.7-1.8,4.4-4.5,5l5,5.7L408.7,167.5z
	 M405.5,159c1.9,0,3.3-0.5,3.3-2.2s-1.4-2.2-3.3-2.2h-7.2v4.5H405.5z"/>
<path class="st0" d="M465.2,164.4v3.1h-16.5v-16h16.3v3.1h-12.6v3.3h10.5v3.1h-10.5v3.5L465.2,164.4z"/>
<path class="st0" d="M508.6,164.9c2.8,0,4.8-0.6,4.8-2.5s-2-2.6-5-2.6c-1.8,0-3.6,0.4-5.3,1l-2.7-1l1.4-8.3h13.8v2.9h-11l-0.7,4.1
	c1.8-1,3.8-1.5,5.9-1.5c3.9,0,7.5,1.7,7.5,5.4c0,3-2.8,5.5-8.5,5.5c-3.3,0.1-6.6-1.1-9-3.4l2.2-2.1
	C503.8,164.1,506.2,164.9,508.6,164.9z"/>
<path class="st0" d="M563.2,154.5h-12.1v-3.1h16.6v2.4l-9,13.6h-4.2L563.2,154.5z"/>
<rect x="34.1" y="188" class="st0" width="533.9" height="1"/>
</svg>
