<?xml version="1.0" encoding="utf-8"?>
<!-- Generator: Adobe Illustrator 26.3.1, SVG Export Plug-In . SVG Version: 6.00 Build 0)  -->
<svg version="1.1" id="Layer_1" xmlns="http://www.w3.org/2000/svg" xmlns:xlink="http://www.w3.org/1999/xlink" x="0px" y="0px"
	 viewBox="0 0 134 107.3" style="enable-background:new 0 0 134 107.3;" xml:space="preserve">
<style type="text/css">
	.st0{fill:#002641;}
</style>
<path class="st0" d="M51.4,59.4c-0.2-0.6-0.4-1.4-0.5-1.7c-5.4-11.3-16.8-15-27.3-20.9C27.4,24,59.6,0.9,72.1,6.7
	c-4.6-7.2-6.9-7.5-12.5-5.8C44.1,6.1,30.4,15.6,20.3,28.4c-4.3,6.1-4.6,8.9,1.8,12.3c4,2,5.8,2.9,11.5,6s10.5,7.1,10.8,14.9
	C6.7,76.7,0.5,97.9,0,103.8c4.3,4.6,9.3,4.1,13.5,2.2c34.3-13.3,38.3-40.6,38.3-40.6S95.3,50,101.4,47.8c12.3-4.7,15.8-4.1,24.9-4.9
	c3.1-0.7,6.2-0.9,7.7-5.3c0.7-4.1-14.6-1.4-27.1,2.5C103.2,41.2,70.6,52.9,51.4,59.4z M9.2,100.2C11.6,85.3,34,71.5,43.7,68.3
	C40.9,85.2,16.9,99.8,9.2,100.2z"/>
<path class="st0" d="M65.1,16.2c5-2,10.2-4.1,15.5-6.1c6-2.2,12-4.4,18.1-6.2c1.6-0.5,3.7,0.7,5.7,3L69.9,22.7
	c11.8,10.6,10.9,16.2-3,23.5c-9.3,4.8-12.4,4.8-20-0.6c9.9-2.6,20.5-3.2,26.3-16.2c-5,1.1-7.8,1.8-10.7,2.3c-4.5,0.8-5.2,0-4.8-5.8
	C57.7,26,62.6,19.5,65.1,16.2z"/>
<path class="st0" d="M101.1,22.4c0,0-9.2,6.9-13.4,10.6c-2.2,2-3.5-0.4-4.4-1.5L82,29.8c0,0,17.4-13.7,23.9-18.3
	c2.4-1.7,5.3-3.8,7.6-0.8c1.2,1.6,1.2,4.8,0.5,6.9c-1.2,3.8-32.5,68-39.2,81.9c-0.5,0.9-1.6,1.4-2.6,1.4c-4.2-0.5-3.7-2.4-2-6.2
	c3.7-8.1,31.4-67,32.4-70.7S101.1,22.4,101.1,22.4z"/>
</svg>
